<svg width="113" height="72" xmlns="http://www.w3.org/2000/svg" xmlns:xlink="http://www.w3.org/1999/xlink" xml:space="preserve" overflow="hidden"><g transform="translate(-120 -36)"><g><g><g><g><path d="M213.5 91.5 206 91.5 206 63 213.5 63 213.5 91.5ZM200 90C200 90.825 199.325 91.5 198.5 91.5 197.675 91.5 197 90.825 197 90L197 64.5C197 63.675 197.675 63 198.5 63 199.325 63 200 63.675 200 64.5L200 90ZM192.5 90C192.5 90.825 191.825 91.5 191 91.5 190.175 91.5 189.5 90.825 189.5 90L189.5 64.5C189.5 63.675 190.175 63 191 63 191.825 63 192.5 63.675 192.5 64.5L192.5 90ZM185 90C185 90.825 184.325 91.5 183.5 91.5 182.675 91.5 182 90.825 182 90L182 64.5C182 63.675 182.675 63 183.5 63 184.325 63 185 63.675 185 64.5L185 90ZM215 58.5 206 58.5 206 55.5 176 55.5 176 99C176 100.65 177.35 102 179 102L203 102C204.65 102 206 100.65 206 99L206 96 215 96C216.65 96 218 94.65 218 93L218 61.5C218 59.85 216.65 58.5 215 58.5Z" fill="#F66969" fill-rule="nonzero" fill-opacity="1"/><path d="M200.75 47.25C199.4 47.25 198.2 47.775 197.3 48.6 196.175 47.775 194.75 47.25 193.25 47.25 193.25 47.25 193.25 47.25 193.175 47.25 192.8 44.325 190.25 42 187.25 42 184.25 42 181.7 44.325 181.325 47.25 181.325 47.25 181.325 47.25 181.25 47.25 178.325 47.25 176 49.575 176 52.5L206 52.5C206 49.575 203.675 47.25 200.75 47.25Z" fill="#F66969" fill-rule="nonzero" fill-opacity="1"/><path d="M146.425 47.25 167.725 47.25 168.25 57 145.75 57 146.425 47.25ZM166.225 97.65C165.025 97.35 163.675 97.05 162.025 96.975 160.375 96.45 159.1 95.625 159.1 94.65L159.1 77.1C164.05 77.1 173.2 72.075 172.75 67.125L171.1 43.875 143.5 43.875 141.55 67.125C141.175 72 150.175 77.1 155.05 77.1L155.05 94.575C155.05 95.625 153.7 96.375 152.125 96.9 150.625 97.125 149.2 97.275 148.075 97.575L148 97.575C146.05 98.1 144.925 98.775 144.925 99.6 144.925 101.325 150.4 102.675 157.15 102.675 163.825 102.675 169.375 101.325 169.375 99.6 169.225 98.85 168.025 98.175 166.225 97.65Z" fill="#F66969" fill-rule="nonzero" fill-opacity="1"/></g></g></g></g></g></svg>