<svg width="88" height="89" xmlns="http://www.w3.org/2000/svg" xmlns:xlink="http://www.w3.org/1999/xlink" xml:space="preserve" overflow="hidden"><g transform="translate(-346 -25)"><g><g><g><g><path d="M51.1125 61.2507C51.7713 61.2661 52.4483 61.2761 53.147 61.2761 53.9373 61.2761 54.7185 61.2607 55.4942 61.2389 55.6157 60.7202 55.6416 60.1837 55.5703 59.6557 55.322 57.8369 54.0678 56.5056 52.7691 56.6832 51.4705 56.8608 50.6168 58.4776 50.866 60.2973 50.9129 60.6232 50.9956 60.943 51.1125 61.2507Z" fill="#F66969" fill-rule="nonzero" fill-opacity="1" transform="matrix(1 0 0 1.01149 347 26)"/><path d="M64.3238 60.4161C64.9917 60.2964 65.5672 60.1759 66.0647 60.0536 66.13 59.9358 66.1988 59.8216 66.255 59.6911 66.9945 58.0109 66.6175 56.221 65.4204 55.6927 64.2232 55.1643 62.6482 56.0987 61.9087 57.7771 61.4535 58.7185 61.4106 59.8069 61.7899 60.7813 62.6817 60.6816 63.5281 60.5574 64.3238 60.4161Z" fill="#F66969" fill-rule="nonzero" fill-opacity="1" transform="matrix(1 0 0 1.01149 347 26)"/><path d="M68.4355 57.9284C68.4308 58.3558 68.3788 58.7813 68.2805 59.1972L68.8406 59.3458C69.3242 59.4746 69.6119 59.971 69.4832 60.4547 69.4047 60.7494 69.1833 60.9848 68.894 61.0813 67.518 61.5958 66.0934 61.9697 64.6419 62.1968 60.841 62.817 56.9944 63.1144 53.1434 63.0859 45.23 63.0859 39.7943 62.0464 37.3447 61.0731 36.8798 60.8877 36.6533 60.3605 36.8387 59.8956 36.9291 59.669 37.1069 59.4885 37.3321 59.3947L38.3661 58.9643C38.2587 58.5711 38.2165 58.163 38.241 57.7562 35.8929 58.4105 34.4846 59.2225 34.4846 60.1061 34.4846 60.4306 34.494 60.7532 34.5127 61.074 34.7686 65.1424 36.808 68.8903 40.0852 71.3146 42.2509 72.9431 44.8246 73.9411 47.5219 74.1983 47.9811 74.2418 48.4451 74.2638 48.9139 74.2645L57.1608 74.2645C62.1844 74.272 66.8592 71.6969 69.5375 67.4468 70.7341 65.5274 71.431 63.3391 71.5648 61.0813 71.5747 60.9208 71.5747 60.7586 71.5793 60.5973 71.5838 60.436 71.5928 60.2756 71.5928 60.1134 71.5938 59.3014 70.4292 58.551 68.4355 57.9284Z" fill="#F66969" fill-rule="nonzero" fill-opacity="1" transform="matrix(1 0 0 1.01149 347 26)"/><path d="M41.6531 60.3481C42.5901 60.5293 43.6577 60.6861 44.8503 60.8248 43.7964 59.5801 43.5711 57.8328 44.2748 56.3615 44.1996 56.3316 44.1317 56.2935 44.0537 56.2709 42.3182 55.6737 40.5647 56.1947 40.1387 57.4345 39.7844 58.4531 40.4496 59.6258 41.6531 60.3481Z" fill="#F66969" fill-rule="nonzero" fill-opacity="1" transform="matrix(1 0 0 1.01149 347 26)"/><path d="M51.2194 55.3556C51.14 55.2093 51.0403 55.075 50.9231 54.9568 49.996 54.0297 48.1926 54.3306 46.8939 55.6283 45.5952 56.9261 45.2953 58.7304 46.2188 59.6575 47.0203 60.3053 48.1419 60.3814 49.0236 59.8478 48.879 58.0615 49.721 56.3388 51.2194 55.3556Z" fill="#F66969" fill-rule="nonzero" fill-opacity="1" transform="matrix(1 0 0 1.01149 347 26)"/><path d="M83.375 65.7031C83.375 59.3367 74.9469 53.8032 62.5312 50.9639L62.5312 54.3877C63.1832 53.9765 63.9356 53.752 64.7063 53.7388 65.2035 53.7374 65.6955 53.8399 66.1508 54.0397 66.9733 54.4112 67.6315 55.0706 68.0014 55.8939L68.9765 56.1984C70.0722 56.5409 73.4062 57.5831 73.4062 60.1088 73.4062 60.2421 73.4008 60.3744 73.3963 60.5076L73.3872 60.7949C73.3872 60.9245 73.3818 61.0532 73.3745 61.1809 73.3573 61.4664 73.3301 61.7501 73.2975 62.0337 74.0858 63.0972 74.5238 64.3795 74.5508 65.7031 74.5508 72.9078 60.6354 78.7586 43.5 78.7586 26.3646 78.7586 12.4492 72.9078 12.4492 65.7031 12.4492 61.8226 16.491 58.3389 22.8946 55.9473L22.8946 55.0003C21.2331 54.5008 19.6643 53.7334 18.2501 52.7283 9.32259 55.8014 3.625 60.4686 3.625 65.7031 3.625 65.7983 3.63859 65.8925 3.64222 65.9868 3.63678 66.0439 3.625 66.0982 3.625 66.1562 3.625 76.6497 21.5126 85.1875 43.5 85.1875 65.4874 85.1875 83.375 76.6497 83.375 66.1562 83.375 66.0982 83.3632 66.0439 83.3578 65.9868 83.3614 65.8925 83.375 65.7983 83.375 65.7031Z" fill="#F66969" fill-rule="nonzero" fill-opacity="1" transform="matrix(1 0 0 1.01149 347 26)"/><path d="M33.8448 66.1463C33.4694 65.9615 33.0778 65.812 32.6748 65.6995 31.8072 65.4658 30.9176 65.323 30.0204 65.2736 28.9783 64.941 28.1726 64.4199 28.1726 63.8036L28.1726 52.7138C31.3001 52.7138 37.0819 49.542 36.7974 46.4109L35.7552 31.7188 18.3144 31.7188 17.0819 46.4109C16.8454 49.4921 22.5321 52.7138 25.6133 52.7138L25.6133 63.7565C25.6133 64.4199 24.7597 64.8938 23.7646 65.2255 22.8167 65.3678 21.9167 65.463 21.2053 65.6524L21.1582 65.6524C19.9257 65.9841 19.2152 66.4109 19.2152 66.932 19.2152 68.0195 22.6744 68.875 26.9401 68.875 30.5379 68.875 33.6101 68.2533 34.4384 67.3942 34.2245 66.9855 34.0215 66.5713 33.8448 66.1463ZM19.7363 40.0127 20.1632 33.8503 33.6219 33.8503 33.9536 40.0127Z" fill="#F66969" fill-rule="nonzero" fill-opacity="1" transform="matrix(1 0 0 1.01149 347 26)"/><path d="M42.6155 54.2073C43.3061 54.2092 43.9916 54.3262 44.6437 54.5535 44.7454 54.5892 44.8452 54.63 44.9427 54.6759L45.2291 54.791C45.3542 54.6405 45.4729 54.4874 45.6125 54.3469 46.6334 53.2788 48.0326 52.6538 49.5093 52.606 50.514 52.5891 51.4837 52.9745 52.2027 53.6763 52.4422 53.9179 52.6458 54.1925 52.8072 54.4919L53.0084 54.8607C53.6007 54.8702 54.1817 55.0239 54.7013 55.3084 55.1275 54.7871 55.6351 54.3381 56.2047 53.979 57.1363 53.3771 58.2187 53.0504 59.3277 53.0365 59.4891 53.0441 59.65 53.0601 59.8098 53.0845L59.8098 28.5061C59.8099 25.1968 57.9723 22.1613 55.0402 20.6272L54.1811 5.51997 54.9269 5.51997 54.9269 4.77866C54.9272 4.3977 54.8533 4.02032 54.7094 3.66759 54.2306 2.61111 53.1656 1.94417 52.0061 1.97472L48.3938 1.97472C47.2342 1.94392 46.169 2.61094 45.6904 3.66759 45.546 4.0202 45.4722 4.39765 45.4729 4.77866L45.4729 5.51997 46.1644 5.51997 45.3062 20.6272C42.3735 22.161 40.5356 25.1966 40.5357 28.5061L40.5357 54.6469C41.1899 54.3542 41.8988 54.2044 42.6155 54.2073Z" fill="#F66969" fill-rule="nonzero" fill-opacity="1" transform="matrix(1 0 0 1.01149 347 26)"/><path d="M60.2493 57.0548C60.478 56.5341 60.7756 56.0465 61.1338 55.6048 60.3707 54.6369 58.6543 54.5726 57.1735 55.5051 56.7694 55.7597 56.4093 56.0779 56.1068 56.4476 56.7919 57.3006 57.2275 58.3266 57.3656 59.4119 57.3957 59.67 57.4103 59.9297 57.4091 60.1895 58.2238 60.2025 59.0238 59.9718 59.7065 59.527 59.7164 59.5207 59.7246 59.5125 59.7346 59.5062 59.7345 58.6622 59.9097 57.8274 60.2493 57.0548Z" fill="#F66969" fill-rule="nonzero" fill-opacity="1" transform="matrix(1 0 0 1.01149 347 26)"/></g></g></g></g></g></svg>